<?xml version="1.0" encoding="UTF-8" standalone="no"?>
<!DOCTYPE svg PUBLIC "-//W3C//DTD SVG 1.1//EN" "http://www.w3.org/Graphics/SVG/1.1/DTD/svg11.dtd">
<svg width="100%" height="100%" viewBox="0 0 21 19" version="1.1" xmlns="http://www.w3.org/2000/svg" xmlns:xlink="http://www.w3.org/1999/xlink" xml:space="preserve" style="fill-rule:evenodd;clip-rule:evenodd;stroke-linejoin:round;stroke-miterlimit:2;">
    <g transform="matrix(1,0,0,1,-22,6.93889e-18)">
        <g id="Artboard2" transform="matrix(1,0,0,0.95,-0.0362045,4.57412e-14)">
            <rect x="22.036" y="-0" width="20.928" height="20" style="fill:none;"/>
            <clipPath id="_clip1">
                <rect x="22.036" y="-0" width="20.928" height="20"/>
            </clipPath>
            <g clip-path="url(#_clip1)">
                <g transform="matrix(1,0,0,1.05263,20.5001,-3.02503)">
                    <path d="M12.012,5.572L10.925,4.485C8.777,2.337 5.295,2.337 3.147,4.485C0.999,6.633 0.999,10.115 3.147,12.263L11.986,21.102L11.988,21.1L12.014,21.126L20.853,12.287C23.001,10.14 23.001,6.657 20.853,4.509C18.705,2.361 15.223,2.361 13.075,4.509L12.012,5.572Z" style="fill:rgb(255,103,103);"/>
                </g>
            </g>
        </g>
    </g>
</svg>
