<?xml version="1.0" encoding="UTF-8" standalone="no"?>
<!DOCTYPE svg PUBLIC "-//W3C//DTD SVG 1.1//EN" "http://www.w3.org/Graphics/SVG/1.1/DTD/svg11.dtd">
<svg width="100%" height="100%" viewBox="0 0 21 19" version="1.1" xmlns="http://www.w3.org/2000/svg" xmlns:xlink="http://www.w3.org/1999/xlink" xml:space="preserve" style="fill-rule:evenodd;clip-rule:evenodd;stroke-linejoin:round;stroke-miterlimit:2;">
    <g id="Artboard1" transform="matrix(0.038961,0,0,0.0311475,-13.9091,-6.26066)">
        <rect x="357" y="201" width="539" height="610" style="fill:none;"/>
        <clipPath id="_clip1">
            <rect x="357" y="201" width="539" height="610"/>
        </clipPath>
        <g clip-path="url(#_clip1)">
            <g transform="matrix(25.6667,0,0,32.1053,317.573,108.737)">
                <path d="M12.012,5.572L10.925,4.485C8.777,2.337 5.295,2.337 3.147,4.485C0.999,6.633 0.999,10.115 3.147,12.263L11.986,21.102L11.988,21.1L12.014,21.126L20.853,12.287C23.001,10.14 23.001,6.657 20.853,4.509C18.705,2.361 15.223,2.361 13.075,4.509L12.012,5.572ZM12.014,18.298L19.439,10.873C20.805,9.506 20.805,7.29 19.439,5.923C18.072,4.557 15.856,4.557 14.489,5.923L12.012,8.4L9.511,5.899C8.144,4.532 5.928,4.532 4.561,5.899C3.194,7.266 3.194,9.482 4.561,10.849L11.986,18.273L11.988,18.271L12.014,18.298Z" style="fill:rgb(255,103,103);"/>
            </g>
        </g>
    </g>
</svg>
